<svg width="372" height="66" viewBox="0 0 372 66" fill="none" xmlns="http://www.w3.org/2000/svg">
<g clip-path="url(#clip0_11_532)">
<path d="M48.1673 37.4444C46.0483 37.4444 44.3228 40.6394 44.3228 44.5873C44.3228 48.5341 46.0483 51.738 48.1673 51.738C50.2853 51.738 52.0075 48.5352 52.0075 44.5873C52.0108 40.6372 50.2886 37.4444 48.1673 37.4444Z" fill="#FF4848"/>
<path d="M32.0779 37.4444C29.9544 37.4444 28.2322 40.6394 28.2322 44.5873C28.2322 48.5341 29.9544 51.738 32.0779 51.738C34.198 51.738 35.9192 48.5352 35.9192 44.5873C35.9192 40.6394 34.198 37.4444 32.0779 37.4444Z" fill="#FF4848"/>
<path d="M73.721 17.2454C74.3684 15.6617 76.4918 9.27268 73.0484 0.641581C73.0484 0.641581 67.7717 -1.02793 55.8203 7.13826C50.8161 5.76111 45.4383 5.55558 40.1199 5.55558C34.8014 5.55558 29.428 5.76111 24.4085 7.14266C12.4614 -1.02903 7.18691 0.640483 7.18691 0.640483C3.74787 9.27598 5.8735 15.6606 6.51866 17.2454C2.46854 21.6231 0 27.2119 0 34.0636C0 59.8591 16.7083 65.6919 40.0264 65.6919C63.3556 65.6919 80.2353 59.8602 80.2353 34.0636C80.2353 27.2119 77.7668 21.622 73.7155 17.2454H73.721ZM40.122 60.756C23.5589 60.756 10.1302 59.98 10.1302 43.9334C10.1302 40.1009 12.0163 36.5223 15.2498 33.5657C20.6353 28.6308 29.7676 31.239 40.1231 31.239C50.4864 31.239 59.6055 28.6308 64.9965 33.5602C68.2333 36.5223 70.1248 40.0899 70.1248 43.929C70.1248 59.9811 56.6874 60.756 40.1242 60.756H40.122Z" fill="#FF4848"/>
<path d="M120.263 30.5874C120.667 30.5874 121.01 30.7287 121.293 31.0115C121.576 31.2943 121.717 31.6376 121.717 32.0416V35.0307C121.717 35.4077 121.576 35.7376 121.293 36.0204C121.01 36.3032 120.667 36.4445 120.263 36.4445H106.973V46.7855C106.973 47.1625 106.839 47.4924 106.569 47.7751C106.3 48.0579 105.963 48.1993 105.559 48.1993H102.489C102.112 48.1993 101.783 48.0579 101.5 47.7751C101.217 47.4924 101.076 47.1625 101.076 46.7855V32.0416C101.076 31.6376 101.217 31.2943 101.5 31.0115C101.783 30.7287 102.112 30.5874 102.489 30.5874H120.263ZM122.081 18.2267C122.458 18.2267 122.788 18.3681 123.07 18.6509C123.353 18.9336 123.495 19.2635 123.495 19.6405V22.5893C123.495 22.9932 123.353 23.3366 123.07 23.6194C122.788 23.9021 122.458 24.0435 122.081 24.0435H102.489C102.112 24.0435 101.783 23.9021 101.5 23.6194C101.217 23.3366 101.076 22.9932 101.076 22.5893V19.6405C101.076 19.2635 101.217 18.9336 101.5 18.6509C101.783 18.3681 102.112 18.2267 102.489 18.2267H122.081ZM138.158 42.5845C138.481 42.6922 138.737 42.874 138.925 43.1298C139.114 43.3856 139.208 43.6751 139.208 43.9983V47.1086C139.208 47.5395 139.033 47.903 138.683 48.1993C138.413 48.4147 138.117 48.5224 137.794 48.5224C137.659 48.5224 137.565 48.509 137.511 48.482C135.007 47.9973 132.853 46.8393 131.048 45.0081C128.625 42.5306 127.413 39.2721 127.413 35.2327V19.6809C127.413 19.277 127.554 18.9336 127.837 18.6509C128.12 18.3681 128.45 18.2267 128.827 18.2267H131.937C132.341 18.2267 132.684 18.3681 132.967 18.6509C133.25 18.9336 133.391 19.277 133.391 19.6809V35.3135C133.391 37.8718 134.118 39.8242 135.572 41.1707C136.326 41.8708 137.188 42.3421 138.158 42.5845ZM152.094 18.2267C152.498 18.2267 152.841 18.3681 153.124 18.6509C153.406 18.9336 153.548 19.277 153.548 19.6809V35.2327C153.548 39.2721 152.336 42.5306 149.912 45.0081C148.108 46.8393 145.954 47.9973 143.449 48.482C143.395 48.509 143.301 48.5224 143.167 48.5224C142.843 48.5224 142.547 48.4147 142.278 48.1993C141.928 47.93 141.753 47.553 141.753 47.0682V43.9579C141.753 43.6616 141.847 43.3856 142.035 43.1298C142.224 42.874 142.48 42.6922 142.803 42.5845C143.826 42.2882 144.688 41.817 145.388 41.1707C146.842 39.878 147.569 37.9257 147.569 35.3135V19.6809C147.569 19.277 147.711 18.9336 147.994 18.6509C148.276 18.3681 148.62 18.2267 149.024 18.2267H152.094ZM184.53 18.2267C184.907 18.2267 185.237 18.3681 185.52 18.6509C185.803 18.9336 185.944 19.2635 185.944 19.6405V46.7047C185.944 47.0817 185.803 47.4116 185.52 47.6943C185.237 47.9771 184.907 48.1185 184.53 48.1185H180.976C180.491 48.1185 180.1 47.93 179.804 47.553L160.051 20.4888C159.89 20.2734 159.795 20.031 159.769 19.7617C159.742 19.4924 159.789 19.2366 159.91 18.9942C160.031 18.7518 160.206 18.5633 160.435 18.4287C160.664 18.294 160.913 18.2267 161.182 18.2267H164.737C164.952 18.2267 165.168 18.2739 165.383 18.3681C165.599 18.4624 165.76 18.6037 165.868 18.7922L180.046 38.0603V19.6405C180.046 19.2635 180.181 18.9336 180.45 18.6509C180.72 18.3681 181.056 18.2267 181.46 18.2267H184.53ZM164.252 37.8179C164.629 37.8179 164.959 37.9526 165.242 38.2219C165.525 38.4912 165.666 38.8278 165.666 39.2317V46.7047C165.666 47.0817 165.525 47.4116 165.242 47.6943C164.959 47.9771 164.629 48.1185 164.252 48.1185H161.182C160.805 48.1185 160.475 47.9771 160.193 47.6943C159.91 47.4116 159.769 47.0817 159.769 46.7047V39.2317C159.769 38.8278 159.91 38.4912 160.193 38.2219C160.475 37.9526 160.805 37.8179 161.182 37.8179H164.252ZM218.138 45.8968C218.3 46.0853 218.394 46.3142 218.421 46.5835C218.448 46.8528 218.401 47.1086 218.28 47.351C218.158 47.5934 217.983 47.7819 217.755 47.9165C217.526 48.0512 217.277 48.1185 217.007 48.1185H213.17C212.927 48.1185 212.705 48.0646 212.503 47.9569C212.301 47.8492 212.133 47.7011 211.998 47.5126L202.344 33.6169L198.385 37.3332V46.7047C198.385 47.0817 198.244 47.4116 197.961 47.6943C197.679 47.9771 197.349 48.1185 196.972 48.1185H193.902C193.525 48.1185 193.195 47.9771 192.912 47.6943C192.629 47.4116 192.488 47.0817 192.488 46.7047V35.4751C192.488 35.0442 192.636 34.7076 192.932 34.4652L209.817 18.6307C210.086 18.3614 210.41 18.2267 210.787 18.2267H215.149C215.418 18.2267 215.674 18.3075 215.917 18.4691C216.159 18.6307 216.334 18.8461 216.442 19.1154C216.549 19.3847 216.576 19.6607 216.522 19.9435C216.469 20.2262 216.334 20.4753 216.119 20.6908L206.666 29.5775L218.138 45.8968ZM193.902 28.5273C193.525 28.5273 193.195 28.3926 192.912 28.1233C192.629 27.854 192.488 27.5174 192.488 27.1135V19.6405C192.488 19.2635 192.629 18.9336 192.912 18.6509C193.195 18.3681 193.525 18.2267 193.902 18.2267H196.972C197.349 18.2267 197.679 18.3681 197.961 18.6509C198.244 18.9336 198.385 19.2635 198.385 19.6405V27.1135C198.385 27.5174 198.244 27.854 197.961 28.1233C197.679 28.3926 197.349 28.5273 196.972 28.5273H193.902ZM233.205 18.5499C233.528 18.8192 233.69 19.1827 233.69 19.6405V22.6701C233.69 23.0202 233.589 23.3231 233.387 23.579C233.185 23.8348 232.909 24.0031 232.559 24.0839C230.836 24.434 229.368 25.2553 228.156 26.5479C226.513 28.2714 225.692 30.5133 225.692 33.2736C225.692 36.0339 226.513 38.2892 228.156 40.0396C229.368 41.3053 230.836 42.1132 232.559 42.4633C232.909 42.5441 233.185 42.7124 233.387 42.9682C233.589 43.224 233.69 43.527 233.69 43.8771V46.9067C233.69 47.3375 233.528 47.7011 233.205 47.9973C232.909 48.2127 232.599 48.3204 232.276 48.3204H232.034C228.91 47.8088 226.231 46.395 223.995 44.0791C221.195 41.1976 219.794 37.6092 219.794 33.314C219.794 29.0187 221.195 25.4034 223.995 22.4681C226.177 20.206 228.856 18.8057 232.034 18.2671C232.465 18.1863 232.855 18.2806 233.205 18.5499ZM245.889 22.4681C248.69 25.4034 250.09 29.0187 250.09 33.314C250.09 37.6092 248.69 41.1976 245.889 44.0791C243.654 46.395 240.974 47.8088 237.851 48.3204H237.608C237.285 48.3204 236.975 48.2127 236.679 47.9973C236.356 47.7011 236.195 47.3375 236.195 46.9067V43.8771C236.195 43.527 236.295 43.224 236.497 42.9682C236.699 42.7124 236.975 42.5441 237.326 42.4633C239.049 42.1132 240.517 41.3053 241.729 40.0396C243.371 38.2892 244.193 36.0339 244.193 33.2736C244.193 30.5133 243.371 28.2714 241.729 26.5479C240.517 25.2553 239.049 24.434 237.326 24.0839C236.975 24.0031 236.699 23.8348 236.497 23.579C236.295 23.3231 236.195 23.0202 236.195 22.6701V19.6405C236.195 19.1827 236.363 18.8192 236.699 18.5499C237.036 18.2806 237.42 18.1863 237.851 18.2671C241.028 18.8057 243.708 20.206 245.889 22.4681ZM274.69 33.213C275.848 33.9401 276.73 34.8288 277.336 35.879C277.942 36.9293 278.245 38.1007 278.245 39.3933C278.245 42.4364 277.087 44.7658 274.771 46.3815C273.209 47.5126 271.095 48.2262 268.429 48.5224H268.268C267.891 48.5224 267.581 48.4012 267.338 48.1589C267.015 47.8626 266.854 47.5126 266.854 47.1086V44.2002C266.854 43.8502 266.975 43.5405 267.217 43.2712C267.46 43.0019 267.756 42.8403 268.106 42.7864C269.372 42.6518 270.355 42.3556 271.055 41.8978C271.593 41.5746 271.957 41.1572 272.145 40.6455C272.253 40.3493 272.307 39.9723 272.307 39.5145C272.307 39.2183 272.253 38.9624 272.145 38.747C272.038 38.5316 271.849 38.3296 271.58 38.1411C270.799 37.6025 269.789 37.1447 268.55 36.7677L267.904 36.5657C266.558 36.1887 265.319 35.879 264.188 35.6367C263.945 35.5828 263.555 35.4885 263.016 35.3539L262.572 35.2327C261.603 34.9903 260.579 34.6537 259.502 34.2229C257.913 33.5496 256.607 32.7013 255.584 31.678C254.399 30.4931 253.806 28.9312 253.806 26.9923C253.806 24.3263 254.83 22.1584 256.876 20.4888C258.277 19.3039 260.243 18.5499 262.774 18.2267C263.205 18.1729 263.575 18.294 263.885 18.5903C264.194 18.8865 264.349 19.2366 264.349 19.6405V22.5489C264.349 22.899 264.242 23.2087 264.026 23.478C263.811 23.7473 263.535 23.9021 263.198 23.9425C262.861 23.9829 262.518 24.057 262.168 24.1647C261.387 24.4609 260.835 24.7504 260.512 25.0332C260.189 25.3159 259.96 25.6054 259.825 25.9016C259.691 26.3594 259.623 26.7903 259.623 27.1942C259.623 27.4097 259.744 27.6386 259.987 27.881C260.364 28.258 260.916 28.5946 261.643 28.8908C261.966 29.0255 262.532 29.2274 263.339 29.4967L268.389 30.7489L268.631 30.8297C269.897 31.1798 270.812 31.4491 271.378 31.6376C272.644 32.0685 273.748 32.5936 274.69 33.213ZM267.944 24.0839C267.621 24.0031 267.359 23.8348 267.157 23.579C266.955 23.3231 266.854 23.0202 266.854 22.6701V19.7213C266.854 19.2904 267.029 18.9269 267.379 18.6307C267.514 18.496 267.689 18.4085 267.904 18.3681C268.119 18.3277 268.321 18.321 268.51 18.3479C270.88 18.7249 272.805 19.5328 274.286 20.7716C276.306 22.4412 277.383 24.5686 277.518 27.1539C277.545 27.5309 277.417 27.8742 277.134 28.1839C276.851 28.4936 276.508 28.6484 276.104 28.6484H272.953C272.603 28.6484 272.294 28.5273 272.024 28.2849C271.755 28.0425 271.607 27.7463 271.58 27.3962C271.472 26.6961 271.243 26.1171 270.893 25.6593C270.328 24.986 269.452 24.4744 268.268 24.1243C268.187 24.1243 268.133 24.1108 268.106 24.0839H267.944ZM263.218 42.6249C263.541 42.6787 263.811 42.8403 264.026 43.1096C264.242 43.3789 264.349 43.6751 264.349 43.9983V46.9874C264.349 47.4183 264.188 47.7819 263.865 48.0781C263.595 48.2935 263.286 48.4012 262.936 48.4012H262.734C260.229 48.0242 258.169 47.2029 256.553 45.9372C254.453 44.2676 253.268 41.9382 252.999 38.949C252.945 38.5181 253.066 38.1478 253.362 37.8381C253.658 37.5285 254.008 37.3736 254.412 37.3736H257.603C257.98 37.3736 258.304 37.5015 258.573 37.7574C258.842 38.0132 258.99 38.3296 259.017 38.7066C259.098 40.0531 259.758 41.0899 260.997 41.817C261.562 42.1401 262.303 42.4094 263.218 42.6249ZM284.344 28.5677C283.967 28.5677 283.638 28.4263 283.355 28.1435C283.072 27.8608 282.931 27.5309 282.931 27.1539V19.6405C282.931 19.2635 283.072 18.9336 283.355 18.6509C283.638 18.3681 283.967 18.2267 284.344 18.2267H287.414C287.818 18.2267 288.155 18.3681 288.424 18.6509C288.694 18.9336 288.828 19.2635 288.828 19.6405V27.1539C288.828 27.5309 288.694 27.8608 288.424 28.1435C288.155 28.4263 287.818 28.5677 287.414 28.5677H284.344ZM306.279 18.2267C306.656 18.2267 306.985 18.3681 307.268 18.6509C307.551 18.9336 307.692 19.2635 307.692 19.6405V46.7855C307.692 47.1625 307.551 47.4924 307.268 47.7751C306.985 48.0579 306.656 48.1993 306.279 48.1993H303.209C302.805 48.1993 302.468 48.0579 302.199 47.7751C301.929 47.4924 301.795 47.1625 301.795 46.7855V36.1214H288.828V46.7855C288.828 47.1625 288.694 47.4924 288.424 47.7751C288.155 48.0579 287.818 48.1993 287.414 48.1993H284.344C283.967 48.1993 283.638 48.0579 283.355 47.7751C283.072 47.4924 282.931 47.1625 282.931 46.7855V31.678C282.931 31.301 283.072 30.9711 283.355 30.6884C283.638 30.4056 283.967 30.2642 284.344 30.2642H301.795V19.6405C301.795 19.2635 301.929 18.9336 302.199 18.6509C302.468 18.3681 302.805 18.2267 303.209 18.2267H306.279ZM325.951 18.5499C326.274 18.8192 326.435 19.1827 326.435 19.6405V22.6701C326.435 23.0202 326.334 23.3231 326.132 23.579C325.93 23.8348 325.654 24.0031 325.304 24.0839C323.581 24.434 322.113 25.2553 320.901 26.5479C319.259 28.2714 318.437 30.5133 318.437 33.2736C318.437 36.0339 319.259 38.2892 320.901 40.0396C322.113 41.3053 323.581 42.1132 325.304 42.4633C325.654 42.5441 325.93 42.7124 326.132 42.9682C326.334 43.224 326.435 43.527 326.435 43.8771V46.9067C326.435 47.3375 326.274 47.7011 325.951 47.9973C325.654 48.2127 325.345 48.3204 325.021 48.3204H324.779C321.655 47.8088 318.976 46.395 316.741 44.0791C313.94 41.1976 312.54 37.6092 312.54 33.314C312.54 29.0187 313.94 25.4034 316.741 22.4681C318.922 20.206 321.601 18.8057 324.779 18.2671C325.21 18.1863 325.6 18.2806 325.951 18.5499ZM338.634 22.4681C341.435 25.4034 342.835 29.0187 342.835 33.314C342.835 37.6092 341.435 41.1976 338.634 44.0791C336.399 46.395 333.72 47.8088 330.596 48.3204H330.354C330.03 48.3204 329.721 48.2127 329.424 47.9973C329.101 47.7011 328.94 47.3375 328.94 46.9067V43.8771C328.94 43.527 329.041 43.224 329.243 42.9682C329.445 42.7124 329.721 42.5441 330.071 42.4633C331.794 42.1132 333.262 41.3053 334.474 40.0396C336.116 38.2892 336.938 36.0339 336.938 33.2736C336.938 30.5133 336.116 28.2714 334.474 26.5479C333.262 25.2553 331.794 24.434 330.071 24.0839C329.721 24.0031 329.445 23.8348 329.243 23.579C329.041 23.3231 328.94 23.0202 328.94 22.6701V19.6405C328.94 19.1827 329.108 18.8192 329.445 18.5499C329.781 18.2806 330.165 18.1863 330.596 18.2671C333.774 18.8057 336.453 20.206 338.634 22.4681ZM361.296 18.2267C364.5 18.2267 367.085 19.1491 369.051 20.9937C371.017 22.8384 372 25.2957 372 28.3657C372 31.4356 371.031 33.8862 369.092 35.7174C367.153 37.5486 364.554 38.4643 361.296 38.4643H353.58V46.7047C353.58 47.0817 353.439 47.4116 353.156 47.6943C352.873 47.9771 352.543 48.1185 352.166 48.1185H349.096C348.719 48.1185 348.39 47.9771 348.107 47.6943C347.824 47.4116 347.683 47.0817 347.683 46.7047V34.1825C347.683 33.8054 347.824 33.4756 348.107 33.1928C348.39 32.91 348.719 32.7687 349.096 32.7687H361.053C362.857 32.7687 364.15 32.3782 364.931 31.5972C365.712 30.8971 366.102 29.8333 366.102 28.4061C366.102 26.9788 365.699 25.8814 364.891 25.1139C364.083 24.3465 362.804 23.9627 361.053 23.9627H349.096C348.719 23.9627 348.39 23.8213 348.107 23.5386C347.824 23.2558 347.683 22.9259 347.683 22.5489V19.6405C347.683 19.2635 347.824 18.9336 348.107 18.6509C348.39 18.3681 348.719 18.2267 349.096 18.2267H361.296Z" fill="#111111"/>
</g>
<defs>
<clipPath id="clip0_11_532">
<rect width="372" height="65.1919" fill="white" transform="translate(0 0.5)"/>
</clipPath>
</defs>
</svg>
